<svg xmlns="http://www.w3.org/2000/svg" viewBox="0 0 44.01 36.08"><defs><style>.cls-1{fill:#ffebe0;}</style></defs><g id="Layer_2" data-name="Layer 2"><g id="Layer_1-2" data-name="Layer 1"><path class="cls-1" d="M21.64,7.47a110.34,110.34,0,0,1,.81,14.31,108.54,108.54,0,0,1-.81,14.3,110.28,110.28,0,0,1-.81-14.3,112.14,112.14,0,0,1,.81-14.31Z"/><path class="cls-1" d="M13.34,22.15a37.45,37.45,0,0,1,8.3-.81,36.24,36.24,0,0,1,8.3.81,37.39,37.39,0,0,1-8.3.81,37.45,37.45,0,0,1-8.3-.81Z"/><path class="cls-1" d="M10.91.72c4.05.1,8.32,1.93,10.36,5.57.38.75.73,1.59,1.15,2.31a9.78,9.78,0,0,0,4.3,3.62,17.55,17.55,0,0,0,9.88,1.31c2.34-.43,4.89-1.34,5.77-3.65A5.57,5.57,0,0,0,42,5.47c-2.24-3.7-7.46-4.1-11.41-3.76l-1.23.14a9.44,9.44,0,0,0-6.72,5.31l-.23.56a9.57,9.57,0,0,1-6.22,6C11.76,15.21,4,15.25,1,11a5.92,5.92,0,0,1,.07-6.81C3.49,1.45,7.45.87,10.91.72Zm0,0c-3.42.18-7.4.77-9.69,3.57a5.57,5.57,0,0,0,.13,6.51c2.94,3.85,10.33,3.51,14.41,1.9A8.48,8.48,0,0,0,21,7.28a12,12,0,0,1,.84-1.91,11,11,0,0,1,7-5.06l1.5-.2c4.56-.43,10.36.24,12.84,4.66,1.38,2.51,1,6.11-1.42,7.84-4.28,3-10.84,2.26-15.3.06a10.23,10.23,0,0,1-4.3-3.94c-.4-.74-.73-1.6-1.09-2.35C19.19,2.68,14.93.85,10.91.72Z"/></g></g></svg>