<svg xmlns="http://www.w3.org/2000/svg" viewBox="0 0 18.02 35.39"><defs><style>.cls-1{fill:#ffebe0;}</style></defs><g id="Layer_2" data-name="Layer 2"><g id="Layer_1-2" data-name="Layer 1"><path class="cls-1" d="M18,9A9,9,0,1,1,5.87.57,9.06,9.06,0,0,1,18,9Zm0,0A8.26,8.26,0,1,0,3.73,14.69,8.26,8.26,0,0,0,18,9Z"/><path class="cls-1" d="M9.38,17.69a45.35,45.35,0,0,1,.76,8.85,45.35,45.35,0,0,1-.76,8.85,45.35,45.35,0,0,1-.76-8.85,45.35,45.35,0,0,1,.76-8.85Z"/><path class="cls-1" d="M3.31,24.07a21.86,21.86,0,0,1,6.12-.76,21.49,21.49,0,0,1,6.12.76,21.86,21.86,0,0,1-6.12.76,22.23,22.23,0,0,1-6.12-.76Z"/><path class="cls-1" d="M3.31,29.21a22.23,22.23,0,0,1,6.12-.76,21.86,21.86,0,0,1,6.12.76A21.49,21.49,0,0,1,9.43,30a21.86,21.86,0,0,1-6.12-.76Z"/></g></g></svg>