<svg xmlns="http://www.w3.org/2000/svg" viewBox="0 0 38.84 34.55"><defs><style>.cls-1{fill:#ffebe0;}</style></defs><g id="Layer_2" data-name="Layer 2"><g id="Layer_1-2" data-name="Layer 1"><path class="cls-1" d="M38.84,14.56c-11.68.27-27.31.77-38.84.75C2.09,11.33,5.78,4.36,7.92.4L8.13,0h.45c7.6,0,15.56.12,23.16.29,2.27,4.46,4.84,9.8,7.1,14.27Zm0,0C36.42,10.29,33.43,5.25,31,1l.42.25c-1.9,0-3.81.08-5.71.1-5.55.09-11.64.16-17.15.18l.67-.4c-1.81,3.45-5.5,10.37-7.34,13.8l-.67-1.1c10.79,0,26.64.49,37.6.75Z"/><path class="cls-1" d="M20,.75a156.72,156.72,0,0,1,.78,16.5A156.78,156.78,0,0,1,20,33.76a156.78,156.78,0,0,1-.78-16.51A156.72,156.72,0,0,1,20,.75Z"/><path class="cls-1" d="M17.38,33.76a4.85,4.85,0,0,1,5.32,0,4.89,4.89,0,0,1-5.32,0Z"/></g></g></svg>