<svg xmlns="http://www.w3.org/2000/svg" viewBox="0 0 32.08 32.11"><defs><style>.cls-1{fill:#ffebe0;}</style></defs><g id="Layer_2" data-name="Layer 2"><g id="Layer_1-2" data-name="Layer 1"><path class="cls-1" d="M16.38,6.2a61.45,61.45,0,0,1,.69,9.86,60.2,60.2,0,0,1-.69,9.85,59.12,59.12,0,0,1-.7-9.85,60.33,60.33,0,0,1,.7-9.86Z"/><path class="cls-1" d="M9.56,16.06a29.53,29.53,0,0,1,6.82-.7,29.5,29.5,0,0,1,6.81.7,29,29,0,0,1-6.81.69,29,29,0,0,1-6.82-.69Z"/><path class="cls-1" d="M32.08,16.06A16.05,16.05,0,1,1,4.85,4.53,16.07,16.07,0,0,1,32.08,16.06Zm0,0a15.36,15.36,0,1,0-15.7,15.35,15.4,15.4,0,0,0,15.7-15.35Z"/></g></g></svg>