<svg xmlns="http://www.w3.org/2000/svg" viewBox="0 0 25.19 36.08"><defs><style>.cls-1{fill:#ffebe0;}</style></defs><g id="Layer_2" data-name="Layer 2"><g id="Layer_1-2" data-name="Layer 1"><path class="cls-1" d="M13,29.55a6.56,6.56,0,0,1-8.65,6.17,6.54,6.54,0,0,1,0-12.33A6.55,6.55,0,0,1,13,29.55Zm0,0a5.72,5.72,0,0,0-6.1-5.68,5.7,5.7,0,0,0,0,11.37A5.72,5.72,0,0,0,13,29.55Z"/><path class="cls-1" d="M25.19,29.55a6.52,6.52,0,1,1-8.65-6.16,6.56,6.56,0,0,1,8.65,6.16Zm0,0a5.69,5.69,0,1,0-6.1,5.69,5.72,5.72,0,0,0,6.1-5.69Z"/><path class="cls-1" d="M19.09,18.58a6.52,6.52,0,1,1-8.65-6.17,6.54,6.54,0,0,1,8.65,6.17Zm0,0A5.69,5.69,0,1,0,13,24.27a5.69,5.69,0,0,0,6.09-5.69Z"/><path class="cls-1" d="M13,12.48a21,21,0,0,1-.83-6.24A21,21,0,0,1,13,0a21,21,0,0,1,.82,6.24A21.28,21.28,0,0,1,13,12.48Z"/><path class="cls-1" d="M12.93,0a4.62,4.62,0,0,1,3.63,3.86A4.58,4.58,0,0,1,12.93,0Z"/><path class="cls-1" d="M13.07,0A4.59,4.59,0,0,1,9.44,3.86,4.61,4.61,0,0,1,13.07,0Z"/></g></g></svg>