<svg width="678" height="616" viewBox="0 0 678 616" fill="none" xmlns="http://www.w3.org/2000/svg">
<path d="M-5.81982 1H190.98L317.08 154.246" stroke="white" stroke-opacity="0.2" stroke-width="1.15" stroke-miterlimit="10"/>
<path d="M311.19 154.242H307.73" stroke="white" stroke-opacity="0.2" stroke-width="0.58" stroke-miterlimit="10"/>
<path d="M300.81 154.242H-0.0800781" stroke="white" stroke-opacity="0.2" stroke-width="0.58" stroke-miterlimit="10"/>
<path d="M21.2798 1V489.923" stroke="white" stroke-opacity="0.2" stroke-width="0.58" stroke-miterlimit="10"/>
<path d="M191.57 1H514.6L640.7 154.246" stroke="white" stroke-opacity="0.2" stroke-width="1.15" stroke-miterlimit="10"/>
<path d="M634.81 154.242H631.35" stroke="white" stroke-opacity="0.2" stroke-width="0.58" stroke-miterlimit="10"/>
<path d="M624.43 154.242H323.54" stroke="white" stroke-opacity="0.2" stroke-width="0.58" stroke-miterlimit="10"/>
<path d="M320.08 154.242H316.62" stroke="white" stroke-opacity="0.2" stroke-width="0.58" stroke-miterlimit="10"/>
<path d="M351.97 1V489.923" stroke="white" stroke-opacity="0.2" stroke-width="0.58" stroke-miterlimit="10"/>
<path d="M132.06 382.892C192.59 382.892 241.66 332.251 241.66 269.782C241.66 207.313 192.59 156.672 132.06 156.672C71.5296 156.672 22.46 207.313 22.46 269.782C22.46 332.251 71.5296 382.892 132.06 382.892Z" stroke="white" stroke-opacity="0.2" stroke-width="1.15" stroke-miterlimit="10"/>
<path d="M241.14 615.265C301.057 615.265 349.63 565.137 349.63 503.301C349.63 441.464 301.057 391.336 241.14 391.336C181.223 391.336 132.65 441.464 132.65 503.301C132.65 565.137 181.223 615.265 241.14 615.265Z" stroke="white" stroke-opacity="0.2" stroke-width="1.14" stroke-miterlimit="10"/>
<path d="M456.96 615.265C516.878 615.265 565.45 565.137 565.45 503.301C565.45 441.464 516.878 391.336 456.96 391.336C397.043 391.336 348.47 441.464 348.47 503.301C348.47 565.137 397.043 615.265 456.96 615.265Z" stroke="white" stroke-opacity="0.2" stroke-width="1.14" stroke-miterlimit="10"/>
<path d="M349.49 419.384C410.021 419.384 459.09 368.743 459.09 306.274C459.09 243.805 410.021 193.164 349.49 193.164C288.96 193.164 239.89 243.805 239.89 306.274C239.89 368.743 288.96 419.384 349.49 419.384Z" stroke="white" stroke-opacity="0.2" stroke-width="0.58" stroke-miterlimit="10"/>
<path d="M132.06 382.891V587.211" stroke="white" stroke-opacity="0.2" stroke-width="1.15" stroke-miterlimit="10"/>
<path d="M82.5601 473.805H188.63" stroke="white" stroke-opacity="0.2" stroke-width="0.58" stroke-miterlimit="10"/>
<path d="M82.5601 517.594H188.63" stroke="white" stroke-opacity="0.2" stroke-width="0.58" stroke-miterlimit="10"/>
<path d="M566.92 382.892C627.45 382.892 676.52 332.251 676.52 269.782C676.52 207.313 627.45 156.672 566.92 156.672C506.389 156.672 457.32 207.313 457.32 269.782C457.32 332.251 506.389 382.892 566.92 382.892Z" stroke="white" stroke-opacity="0.2" stroke-width="1.15" stroke-miterlimit="10"/>
<path d="M566.92 382.891V587.211" stroke="white" stroke-opacity="0.2" stroke-width="1.15" stroke-miterlimit="10"/>
<path d="M517.42 473.805H623.49" stroke="white" stroke-opacity="0.2" stroke-width="0.58" stroke-miterlimit="10"/>
</svg>
