<svg width="685" height="617" viewBox="0 0 685 617" fill="none" xmlns="http://www.w3.org/2000/svg">
<path d="M1.18018 1.1875H197.98L324.08 154.433" stroke="white" stroke-opacity="0.2" stroke-width="1.15" stroke-miterlimit="10"/>
<path d="M318.19 154.43H314.73" stroke="white" stroke-opacity="0.2" stroke-width="0.58" stroke-miterlimit="10"/>
<path d="M307.81 154.43H6.91992" stroke="white" stroke-opacity="0.2" stroke-width="0.58" stroke-miterlimit="10"/>
<path d="M3.46 154.43H0" stroke="white" stroke-opacity="0.2" stroke-width="0.58" stroke-miterlimit="10"/>
<path d="M28.2798 1.1875V490.11" stroke="white" stroke-opacity="0.2" stroke-width="0.58" stroke-miterlimit="10"/>
<path d="M198.57 1.1875H521.6L647.7 154.433" stroke="white" stroke-opacity="0.2" stroke-width="1.15" stroke-miterlimit="10"/>
<path d="M641.81 154.43H638.35" stroke="white" stroke-opacity="0.2" stroke-width="0.58" stroke-miterlimit="10"/>
<path d="M631.43 154.43H330.54" stroke="white" stroke-opacity="0.2" stroke-width="0.58" stroke-miterlimit="10"/>
<path d="M327.08 154.43H323.62" stroke="white" stroke-opacity="0.2" stroke-width="0.58" stroke-miterlimit="10"/>
<path d="M358.97 1.1875V490.11" stroke="white" stroke-opacity="0.2" stroke-width="0.58" stroke-miterlimit="10"/>
<path d="M139.06 383.08C199.59 383.08 248.66 332.439 248.66 269.969C248.66 207.5 199.59 156.859 139.06 156.859C78.5296 156.859 29.46 207.5 29.46 269.969C29.46 332.439 78.5296 383.08 139.06 383.08Z" stroke="white" stroke-opacity="0.2" stroke-width="1.15" stroke-miterlimit="10"/>
<path d="M248.14 615.453C308.057 615.453 356.63 565.324 356.63 503.488C356.63 441.652 308.057 391.523 248.14 391.523C188.223 391.523 139.65 441.652 139.65 503.488C139.65 565.324 188.223 615.453 248.14 615.453Z" stroke="white" stroke-opacity="0.2" stroke-width="1.14" stroke-miterlimit="10"/>
<path d="M463.96 615.453C523.878 615.453 572.45 565.324 572.45 503.488C572.45 441.652 523.878 391.523 463.96 391.523C404.043 391.523 355.47 441.652 355.47 503.488C355.47 565.324 404.043 615.453 463.96 615.453Z" stroke="white" stroke-opacity="0.2" stroke-width="1.14" stroke-miterlimit="10"/>
<path d="M356.49 419.572C417.021 419.572 466.09 368.931 466.09 306.462C466.09 243.993 417.021 193.352 356.49 193.352C295.96 193.352 246.89 243.993 246.89 306.462C246.89 368.931 295.96 419.572 356.49 419.572Z" stroke="white" stroke-opacity="0.2" stroke-width="0.58" stroke-miterlimit="10"/>
<path d="M139.06 383.078V587.399" stroke="white" stroke-opacity="0.2" stroke-width="1.15" stroke-miterlimit="10"/>
<path d="M89.5601 473.992H195.63" stroke="white" stroke-opacity="0.2" stroke-width="0.58" stroke-miterlimit="10"/>
<path d="M89.5601 517.781H195.63" stroke="white" stroke-opacity="0.2" stroke-width="0.58" stroke-miterlimit="10"/>
<path d="M573.92 383.08C634.45 383.08 683.52 332.439 683.52 269.969C683.52 207.5 634.45 156.859 573.92 156.859C513.389 156.859 464.32 207.5 464.32 269.969C464.32 332.439 513.389 383.08 573.92 383.08Z" stroke="white" stroke-opacity="0.2" stroke-width="1.15" stroke-miterlimit="10"/>
<path d="M573.92 383.078V587.399" stroke="white" stroke-opacity="0.2" stroke-width="1.15" stroke-miterlimit="10"/>
<path d="M524.42 473.992H630.49" stroke="white" stroke-opacity="0.2" stroke-width="0.58" stroke-miterlimit="10"/>
</svg>
