<svg width="685" height="617" viewBox="0 0 685 617" fill="none" xmlns="http://www.w3.org/2000/svg">
<g opacity="0.1" clip-path="url(#clip0_448_722)">
<path d="M1.17969 0.601562H197.98L324.08 154.144" stroke="black" stroke-width="1.15" stroke-miterlimit="10"/>
<path d="M318.19 154.141H314.73" stroke="black" stroke-width="0.58" stroke-miterlimit="10"/>
<path d="M307.81 154.141H6.91992" stroke="black" stroke-width="0.58" stroke-miterlimit="10"/>
<path d="M3.46 154.141H0" stroke="black" stroke-width="0.58" stroke-miterlimit="10"/>
<path d="M28.2803 0.601562V490.471" stroke="black" stroke-width="0.58" stroke-miterlimit="10"/>
<path d="M198.57 0.601562H521.6L647.7 154.144" stroke="black" stroke-width="1.15" stroke-miterlimit="10"/>
<path d="M641.81 154.141H638.35" stroke="black" stroke-width="0.58" stroke-miterlimit="10"/>
<path d="M631.43 154.141H330.54" stroke="black" stroke-width="0.58" stroke-miterlimit="10"/>
<path d="M327.08 154.141H323.62" stroke="black" stroke-width="0.58" stroke-miterlimit="10"/>
<path d="M358.97 0.601562V490.471" stroke="black" stroke-width="0.58" stroke-miterlimit="10"/>
<path d="M139.06 383.229C199.59 383.229 248.66 332.49 248.66 269.9C248.66 207.31 199.59 156.57 139.06 156.57C78.5296 156.57 29.46 207.31 29.46 269.9C29.46 332.49 78.5296 383.229 139.06 383.229Z" stroke="black" stroke-width="1.15" stroke-miterlimit="10"/>
<path d="M248.14 616.05C308.058 616.05 356.63 565.825 356.63 503.869C356.63 441.913 308.058 391.688 248.14 391.688C188.223 391.688 139.65 441.913 139.65 503.869C139.65 565.825 188.223 616.05 248.14 616.05Z" stroke="black" stroke-width="1.14" stroke-miterlimit="10"/>
<path d="M463.96 616.05C523.877 616.05 572.45 565.825 572.45 503.869C572.45 441.913 523.877 391.688 463.96 391.688C404.042 391.688 355.47 441.913 355.47 503.869C355.47 565.825 404.042 616.05 463.96 616.05Z" stroke="black" stroke-width="1.14" stroke-miterlimit="10"/>
<path d="M356.49 419.799C417.02 419.799 466.09 369.06 466.09 306.47C466.09 243.88 417.02 193.141 356.49 193.141C295.959 193.141 246.89 243.88 246.89 306.47C246.89 369.06 295.959 419.799 356.49 419.799Z" stroke="black" stroke-width="0.58" stroke-miterlimit="10"/>
<path d="M139.06 383.234V587.951" stroke="black" stroke-width="1.15" stroke-miterlimit="10"/>
<path d="M89.5596 474.32H195.63" stroke="black" stroke-width="0.58" stroke-miterlimit="10"/>
<path d="M89.5596 518.195H195.63" stroke="black" stroke-width="0.58" stroke-miterlimit="10"/>
<path d="M573.92 383.229C634.451 383.229 683.52 332.49 683.52 269.9C683.52 207.31 634.451 156.57 573.92 156.57C513.39 156.57 464.32 207.31 464.32 269.9C464.32 332.49 513.39 383.229 573.92 383.229Z" stroke="black" stroke-width="1.15" stroke-miterlimit="10"/>
<path d="M573.92 383.234V587.951" stroke="black" stroke-width="1.15" stroke-miterlimit="10"/>
<path d="M524.42 474.32H630.49" stroke="black" stroke-width="0.58" stroke-miterlimit="10"/>
<path d="M524.42 518.195H630.49" stroke="black" stroke-width="0.58" stroke-miterlimit="10"/>
</g>
<defs>
<clipPath id="clip0_448_722">
<rect width="684.09" height="616.641" fill="white"/>
</clipPath>
</defs>
</svg>
