<svg width="170" height="161" viewBox="0 0 170 161" fill="none" xmlns="http://www.w3.org/2000/svg">
<path d="M38.0627 15.5124C-53.4077 60.6484 37.7672 190.451 124.798 155.688C205.316 123.447 170.089 -4.11162 83.3546 4.29843C80.0983 4.57832 80.0983 9.06439 83.3546 9.34474C120.357 10.1858 151.435 30.342 161.5 64.8251C170.677 95.3829 160.704 131.301 130.806 147.561C51.7676 190.175 -53.3611 59.9057 43.9836 21.119C44.2796 21.6792 43.6476 20.5588 44.2391 21.119C45.4232 22.5212 43.9836 19.9976 45.1677 20.2784C44.8722 20.8387 46.7113 18.3874 46.4158 18.9485C43.9973 20.7809 51.4946 16.2 51.4946 16.2C51.4946 16.2 63.1033 14.5967 72.9943 7.66171C75.066 5.13857 73.8823 1.21365 70.3301 1.21365C80.9869 -0.748337 59.6733 1.21365 70.3301 1.21365C67.9619 1.49446 47.4083 7.87561 48.5924 9.55771C49.4805 10.9599 41.7869 12.804 40.1277 14.3676C39.8307 14.6475 38.3592 14.9513 38.0627 15.5124Z" fill="url(#paint0_linear_448_2344)"/>
<defs>
<linearGradient id="paint0_linear_448_2344" x1="85.0001" y1="161.531" x2="85.0001" y2="0.34166" gradientUnits="userSpaceOnUse">
<stop stop-color="#BA0A40"/>
<stop offset="1" stop-color="#BF3761"/>
</linearGradient>
</defs>
</svg>
