<svg width="90" height="91" viewBox="0 0 90 91" fill="none" xmlns="http://www.w3.org/2000/svg">
<path d="M70.3481 46.5846C70.3083 69.3967 42.8621 81.1745 26.2643 65.3202C15.7745 55.5342 15.7612 37.6484 26.2643 27.8623C42.9152 12.0081 70.2684 23.746 70.3481 46.5979V46.5846ZM70.3481 46.5846C70.2552 24.3701 43.2206 13.5749 27.8843 29.469C18.7355 38.6177 18.7355 54.5516 27.8843 63.7003C43.2206 79.6076 70.2552 68.7859 70.3481 46.5846Z" fill="#B3093F"/>
<path d="M45.0002 0.507812C46.8193 11.0242 46.8326 21.8327 45.0002 32.3491C43.1678 21.8327 43.1811 11.0242 45.0002 0.507812Z" fill="#B3093F"/>
<path d="M45.0002 58.6562C46.8193 69.1726 46.8326 79.9811 45.0002 90.4975C43.1678 79.9811 43.1811 69.1726 45.0002 58.6562Z" fill="#B3093F"/>
<path d="M89.9999 45.5099C79.4836 47.3291 68.6751 47.3423 58.1587 45.5099C68.6751 43.6776 79.4836 43.6908 89.9999 45.5099Z" fill="#B3093F"/>
<path d="M31.8415 45.5099C21.3251 47.3291 10.5166 47.3423 0.000244141 45.5099C10.5166 43.6776 21.3251 43.6908 31.8415 45.5099Z" fill="#B3093F"/>
</svg>
