<svg width="91" height="80" viewBox="0 0 91 80" fill="none" xmlns="http://www.w3.org/2000/svg">
<path d="M30.1067 79.6633V77.1504C32.9578 77.1504 35.7607 76.6994 38.4508 75.8296L39.2239 78.2136C36.2923 79.1639 33.2156 79.6633 30.0907 79.6633H30.1067ZM20.9734 78.2297C18.0256 77.2793 15.255 75.8618 12.7422 74.0415L14.2241 72.0119C16.5275 73.6872 19.0565 74.9758 21.7627 75.8456L20.9895 78.2297H20.9734ZM47.4552 74.0093L45.9733 71.9797C48.2767 70.3044 50.2741 68.2909 51.9493 66.0036L53.979 67.4855C52.1587 69.9984 49.9519 72.1891 47.4552 74.0254V74.0093ZM6.18612 67.5177C4.3498 65.0049 2.93229 62.2343 1.9658 59.2865L4.34977 58.5133C5.23572 61.2034 6.52439 63.7323 8.19964 66.0358L6.17 67.5177H6.18612ZM58.1833 59.2382L55.7992 58.465C56.669 55.7749 57.1201 52.9721 57.1201 50.1048V49.9921H59.6329V50.1048C59.6329 53.2298 59.1497 56.2904 58.1993 59.2382H58.1833ZM0.516026 50.1693V50.1209C0.516026 47.0282 0.999278 43.9676 1.93355 41.0521L4.31762 41.8253C3.44778 44.4992 3.01287 47.2859 3.01287 50.1209L0.5 50.1693H0.516026ZM55.767 41.6642C54.8811 38.9741 53.5763 36.4451 51.901 34.1417L53.9307 32.6597C55.767 35.1726 57.2006 37.9271 58.1671 40.8749L55.7831 41.6642H55.767ZM8.15137 34.2705L6.12173 32.7886C7.94195 30.2757 10.1326 28.0689 12.6455 26.2326L14.1274 28.2622C11.8401 29.9374 9.82653 31.951 8.16739 34.2544L8.15137 34.2705ZM45.8927 28.1817C43.5893 26.5064 41.0442 25.2339 38.3541 24.364L39.1273 21.9639C42.0751 22.9143 44.8457 24.3157 47.3747 26.1359L45.9088 28.1655L45.8927 28.1817ZM21.6499 24.4124L20.8606 22.0283C23.7923 21.0619 26.869 20.5786 29.9779 20.5625V23.0754C27.1267 23.0754 24.3239 23.5264 21.6339 24.4124H21.6499Z" fill="#B3093F"/>
<path d="M45.5404 69.1711V66.6582C48.3915 66.6582 51.1943 66.2072 53.8844 65.3374L54.6575 67.7214C51.7259 68.6717 48.6492 69.1711 45.5242 69.1711H45.5404ZM36.407 67.7375C33.4592 66.7871 30.6886 65.3696 28.1757 63.5494L29.6577 61.5197C31.9611 63.195 34.4901 64.4836 37.1963 65.3535L36.4231 67.7375H36.407ZM62.8888 63.5171L61.4069 61.4875C63.7103 59.8123 65.7078 57.7987 67.383 55.4953L69.4126 56.9772C67.5923 59.4901 65.3855 61.6808 62.8888 63.5171ZM21.6197 57.0256C19.7834 54.5127 18.3659 51.7421 17.3994 48.7943L19.7834 48.0211C20.6693 50.7112 21.958 53.2401 23.6332 55.5436L21.6036 57.0256H21.6197ZM73.6169 48.746L71.2328 47.9728C72.1026 45.2827 72.5537 42.4799 72.5537 39.6126V39.4999H75.0665V39.6126C75.0665 42.7376 74.5834 45.7982 73.633 48.746H73.6169ZM15.9497 39.6771V39.6288C15.9497 36.536 16.4329 33.4754 17.3671 30.5599L19.7512 31.3331C18.8975 34.007 18.4465 36.7937 18.4465 39.6288L15.9336 39.6771H15.9497ZM71.2006 31.172C70.3147 28.4819 69.0099 25.9529 67.3346 23.6495L69.3643 22.1675C71.2006 24.6804 72.6342 27.4349 73.6007 30.3827L71.2168 31.172H71.2006ZM23.585 23.7783L21.5553 22.2964C23.3755 19.7835 25.5662 17.5767 28.0791 15.7404L29.561 17.77C27.2737 19.4453 25.2602 21.4588 23.6011 23.7622L23.585 23.7783ZM61.3263 17.6895C59.0229 16.0142 56.4778 14.7417 53.7877 13.8718L54.5609 11.4717C57.5087 12.4221 60.2793 13.8235 62.8083 15.6437L61.3425 17.6734L61.3263 17.6895ZM37.0836 13.9202L36.2942 11.5362C39.2259 10.5697 42.3026 10.0864 45.4115 10.0703V12.5832C42.5603 12.5832 39.7575 13.0342 37.0675 13.9202H37.0836Z" fill="#B3093F"/>
<path d="M60.974 59.4367V56.9239C63.8251 56.9239 66.6279 56.4728 69.318 55.603L70.0911 57.987C67.1595 58.9374 64.0828 59.4367 60.9578 59.4367H60.974ZM51.8406 58.0031C48.8928 57.0527 46.1222 55.6352 43.6093 53.815L45.0914 51.7853C47.3948 53.4606 49.9238 54.7492 52.63 55.6191L51.8567 58.0031H51.8406ZM78.3224 53.7828L76.8404 51.7531C79.1439 50.0779 81.1414 48.0644 82.8166 45.777L84.8462 47.259C83.026 49.7718 80.8191 51.9625 78.3224 53.7989V53.7828ZM37.0533 47.2912C35.217 44.7783 33.7995 42.0077 32.833 39.0599L35.2171 38.2867C36.103 40.9768 37.3916 43.5058 39.0668 45.8092L37.0373 47.2912H37.0533ZM89.0504 39.0116L86.6665 38.2384C87.5363 35.5483 87.9873 32.7455 87.9873 29.8783V29.7655H90.5001V29.8783C90.5001 33.0033 90.017 36.0638 89.0666 39.0116H89.0504ZM31.3833 29.9427V29.8944C31.3833 26.8016 31.8666 23.7411 32.8008 20.8255L35.1848 21.5987C34.3311 24.2726 33.8801 27.0593 33.8801 29.8944L31.3672 29.9427H31.3833ZM86.6342 21.4376C85.7483 18.7475 84.4435 16.2186 82.7682 13.9151L84.7979 12.4332C86.6342 14.946 88.0678 17.7005 89.0343 20.6483L86.6504 21.4376H86.6342ZM39.0186 14.044L36.9889 12.562C38.8091 10.0491 40.9998 7.84233 43.5127 6.00601L44.9946 8.03563C42.7073 9.71088 40.6938 11.7244 39.0347 14.0279L39.0186 14.044ZM76.7599 7.95509C74.4565 6.27984 71.9114 5.0073 69.2213 4.13746L69.9945 1.73735C72.9423 2.68773 75.7129 4.08914 78.2418 5.90936L76.7761 7.93898L76.7599 7.95509ZM52.5172 4.18578L51.7279 1.80178C54.6596 0.83529 57.7362 0.352046 60.8451 0.335938V2.84881C57.9939 2.84881 55.1911 3.29984 52.5011 4.18578H52.5172Z" fill="#B3093F"/>
</svg>
