<svg width="91" height="90" viewBox="0 0 91 90" fill="none" xmlns="http://www.w3.org/2000/svg">
<path d="M60.7862 15.9766C59.9468 19.4616 58.535 22.705 56.9832 25.8975C55.3806 29.0645 53.638 32.1425 51.3613 34.9153C52.2008 31.4303 53.5999 28.1869 55.1643 24.9944C56.7669 21.8273 58.5095 18.7493 60.7862 15.9766Z" fill="#B3093F"/>
<path d="M41.0592 55.5703C40.2197 59.0553 38.8079 62.2987 37.2562 65.4912C35.6536 68.6583 33.911 71.7363 31.6343 74.5091C32.4737 71.024 33.8728 67.7807 35.4373 64.5882C37.0399 61.4211 38.7825 58.3431 41.0592 55.5703Z" fill="#B3093F"/>
<path d="M75.4764 59.8155C71.9913 58.976 68.748 57.5642 65.5556 56.0125C62.3885 54.4099 59.3104 52.6673 56.5376 50.3906C60.0226 51.2301 63.2661 52.6292 66.4586 54.1936C69.6256 55.7962 72.7036 57.5388 75.4764 59.8155Z" fill="#B3093F"/>
<path d="M35.8695 40.0889C32.3845 39.2495 29.1412 37.8376 25.9487 36.2859C22.7817 34.6833 19.7037 32.9408 16.9309 30.6641C20.4159 31.5035 23.6592 32.9026 26.8517 34.4671C30.0188 36.0697 33.0968 37.8122 35.8695 40.0889Z" fill="#B3093F"/>
<path d="M56.5381 50.3943C52.9132 57.8223 42.6363 59.3868 36.9636 53.2816C29.3703 45.0778 35.946 31.9008 47.0497 33.0201C55.3426 33.8722 60.2775 43.03 56.5254 50.3943H56.5381ZM56.5381 50.3943C60.9517 41.3765 52.1883 31.71 42.8143 35.1314C37.4596 37.0266 34.3688 43.2081 36.0859 48.6391C38.9986 58.1912 51.9974 59.3486 56.5381 50.3943Z" fill="#B3093F"/>
<path d="M71.5591 12.3749C69.0661 17.5643 61.7908 18.7599 57.7716 14.5245C52.2134 8.71182 56.9829 -0.86566 64.9705 0.0628341C70.7704 0.724227 74.1919 7.26185 71.5591 12.3749ZM71.5591 12.3749C74.6117 6.168 68.4937 -0.458649 62.096 2.00886C56.2833 4.2347 55.5965 12.3749 61.0149 15.5293C64.5762 17.7551 69.753 16.2161 71.5591 12.3749Z" fill="#B3093F"/>
<path d="M89.8491 66.9765C87.3562 72.1659 80.0809 73.3615 76.0616 69.126C70.5034 63.3134 75.2729 53.7359 83.2605 54.6644C89.0605 55.3258 92.482 61.8634 89.8491 66.9765ZM89.8491 66.9765C92.889 60.7696 86.7837 54.1429 80.386 56.6104C74.5734 58.8363 73.8866 66.9765 79.3049 70.1308C82.8663 72.3567 88.043 70.8177 89.8491 66.9765Z" fill="#B3093F"/>
<path d="M16.9433 30.664C14.4504 35.8534 7.17508 37.049 3.15585 32.8135C-2.4024 27.0009 2.36731 17.4234 10.3549 18.3519C16.1548 19.0133 19.5762 25.5509 16.9433 30.6513V30.664ZM16.9433 30.664C19.9959 24.4571 13.8781 17.8304 7.48037 20.2979C1.66774 22.5238 0.980943 30.664 6.39928 33.8183C9.96063 36.0442 15.1372 34.5052 16.9433 30.664Z" fill="#B3093F"/>
<path d="M35.2334 85.2812C32.7404 90.4706 25.4651 91.6662 21.4459 87.4307C15.8876 81.6181 20.6573 72.0406 28.6449 72.9691C34.4449 73.6305 37.8662 80.1681 35.2334 85.2812ZM35.2334 85.2812C38.2859 79.0743 32.1681 72.4476 25.7704 74.9151C19.9578 77.141 19.271 85.2812 24.6893 88.4355C28.2507 90.6614 33.4272 89.1224 35.2334 85.2812Z" fill="#B3093F"/>
</svg>
